<mxfile host="65bd71144e" modified="2024-07-10T15:37:06.111Z" agent="Mozilla/5.0 (Windows NT 10.0; Win64; x64) AppleWebKit/537.36 (KHTML, like Gecko) Code/1.91.0 Chrome/122.0.6261.156 Electron/29.4.0 Safari/537.36" etag="YiVNOgZdWPpg7S5YekQn" version="24.6.4" type="embed">
    <diagram id="mJ-dKqEsO_aJzeUCnxig" name="Page-1">
        <mxGraphModel dx="-1797" dy="-891" grid="1" gridSize="10" guides="1" tooltips="1" connect="1" arrows="1" fold="1" page="1" pageScale="1" pageWidth="1100" pageHeight="850" background="#ffffff" math="0" shadow="0">
            <root>
                <mxCell id="0"/>
                <mxCell id="1" parent="0"/>
                <mxCell id="398" value="C1" style="rounded=0;whiteSpace=wrap;html=1;strokeWidth=2;fillColor=#d5e8d4;strokeColor=#82b366;" parent="1" vertex="1">
                    <mxGeometry x="3580.0000000000005" y="2231.62" width="40" height="40" as="geometry"/>
                </mxCell>
                <mxCell id="399" value="Time bin 0" style="rounded=0;whiteSpace=wrap;html=1;strokeWidth=2;fillColor=#f5f5f5;strokeColor=#666666;fontFamily=Helvetica;fontSize=19;" parent="1" vertex="1">
                    <mxGeometry x="3559.1700000000005" y="2066.62" width="120" height="40" as="geometry"/>
                </mxCell>
                <mxCell id="400" value="Time bin 1" style="rounded=0;whiteSpace=wrap;html=1;strokeWidth=2;fillColor=#f5f5f5;strokeColor=#666666;fontFamily=Helvetica;fontSize=19;" parent="1" vertex="1">
                    <mxGeometry x="3679.1700000000005" y="2066.62" width="120" height="40" as="geometry"/>
                </mxCell>
                <mxCell id="401" style="edgeStyle=orthogonalEdgeStyle;rounded=1;orthogonalLoop=1;jettySize=auto;html=1;strokeWidth=2;" parent="1" edge="1">
                    <mxGeometry relative="1" as="geometry">
                        <mxPoint x="3580.2500000000005" y="2211.62" as="targetPoint"/>
                        <mxPoint x="3580.0000000000005" y="2271.62" as="sourcePoint"/>
                    </mxGeometry>
                </mxCell>
                <mxCell id="402" value="Network schedule" style="text;html=1;strokeColor=none;fillColor=none;align=left;verticalAlign=middle;whiteSpace=wrap;rounded=0;fontSize=20;fontColor=#000000;fontFamily=Helvetica;spacing=0;" parent="1" vertex="1">
                    <mxGeometry x="3409.1700000000005" y="2051.62" width="100" height="60" as="geometry"/>
                </mxCell>
                <mxCell id="403" value="Network process" style="text;html=1;strokeColor=none;fillColor=none;align=left;verticalAlign=middle;whiteSpace=wrap;rounded=0;fontSize=20;fontColor=#000000;fontFamily=Helvetica;spacing=0;" parent="1" vertex="1">
                    <mxGeometry x="3410.0000000000005" y="2131.62" width="100" height="60" as="geometry"/>
                </mxCell>
                <mxCell id="404" value="DQC user process 1" style="text;html=1;strokeColor=none;fillColor=none;align=left;verticalAlign=middle;whiteSpace=wrap;rounded=0;fontSize=20;fontColor=#000000;fontFamily=Helvetica;spacing=0;" parent="1" vertex="1">
                    <mxGeometry x="3410.0000000000005" y="2211.62" width="100" height="60" as="geometry"/>
                </mxCell>
                <mxCell id="405" style="edgeStyle=orthogonalEdgeStyle;rounded=1;orthogonalLoop=1;jettySize=auto;html=1;strokeWidth=2;endArrow=none;endFill=0;" parent="1" edge="1">
                    <mxGeometry relative="1" as="geometry">
                        <mxPoint x="4419.17" y="2191.62" as="targetPoint"/>
                        <mxPoint x="3539.1700000000005" y="2191.62" as="sourcePoint"/>
                    </mxGeometry>
                </mxCell>
                <mxCell id="407" style="edgeStyle=orthogonalEdgeStyle;rounded=1;orthogonalLoop=1;jettySize=auto;html=1;strokeWidth=2;endArrow=none;endFill=0;" parent="1" edge="1">
                    <mxGeometry relative="1" as="geometry">
                        <mxPoint x="4420" y="2271.62" as="targetPoint"/>
                        <mxPoint x="3540.0000000000005" y="2271.62" as="sourcePoint"/>
                    </mxGeometry>
                </mxCell>
                <mxCell id="408" value="Time bin N" style="rounded=0;whiteSpace=wrap;html=1;strokeWidth=2;fillColor=#f5f5f5;strokeColor=#666666;fontFamily=Helvetica;fontSize=19;" parent="1" vertex="1">
                    <mxGeometry x="3919.1700000000005" y="2066.62" width="120" height="40" as="geometry"/>
                </mxCell>
                <mxCell id="409" value="Time bin N+1" style="rounded=0;whiteSpace=wrap;html=1;strokeWidth=2;fillColor=#f5f5f5;strokeColor=#666666;fontFamily=Helvetica;fontSize=19;" parent="1" vertex="1">
                    <mxGeometry x="4039.1700000000005" y="2066.62" width="120" height="40" as="geometry"/>
                </mxCell>
                <mxCell id="410" value="C1" style="rounded=0;whiteSpace=wrap;html=1;strokeWidth=2;fillColor=#d5e8d4;strokeColor=#82b366;" parent="1" vertex="1">
                    <mxGeometry x="3930.3200000000006" y="2231.62" width="40" height="40" as="geometry"/>
                </mxCell>
                <mxCell id="411" value="" style="shape=card;whiteSpace=wrap;html=1;size=100;rotation=-90;fillColor=#dae8fc;strokeColor=#6c8ebf;strokeWidth=2;" parent="1" vertex="1">
                    <mxGeometry x="3860.8300000000004" y="2127.99" width="40" height="86" as="geometry"/>
                </mxCell>
                <mxCell id="412" value="" style="shape=card;whiteSpace=wrap;html=1;size=100;rotation=90;fillColor=#dae8fc;strokeColor=#6c8ebf;strokeWidth=2;" parent="1" vertex="1">
                    <mxGeometry x="3742.27" y="2091.43" width="40" height="161.62" as="geometry"/>
                </mxCell>
                <mxCell id="413" value="" style="rounded=0;whiteSpace=wrap;html=1;strokeWidth=2;fillColor=#f5f5f5;strokeColor=#666666;fontFamily=Helvetica;fontSize=19;dashed=1;" parent="1" vertex="1">
                    <mxGeometry x="3799.1700000000005" y="2066.62" width="120" height="40" as="geometry"/>
                </mxCell>
                <mxCell id="414" value="..." style="text;html=1;align=center;verticalAlign=middle;whiteSpace=wrap;rounded=0;fontSize=28;" parent="1" vertex="1">
                    <mxGeometry x="3810.0000000000005" y="2146.62" width="60" height="30" as="geometry"/>
                </mxCell>
                <mxCell id="416" style="edgeStyle=orthogonalEdgeStyle;rounded=1;orthogonalLoop=1;jettySize=auto;html=1;strokeWidth=2;" parent="1" edge="1">
                    <mxGeometry relative="1" as="geometry">
                        <mxPoint x="3580.0000000000005" y="2371.91" as="targetPoint"/>
                        <mxPoint x="3580.0000000000005" y="2431.91" as="sourcePoint"/>
                    </mxGeometry>
                </mxCell>
                <mxCell id="417" value="LGT user process 1" style="text;html=1;strokeColor=none;fillColor=none;align=left;verticalAlign=middle;whiteSpace=wrap;rounded=0;fontSize=20;fontColor=#000000;fontFamily=Helvetica;spacing=0;" parent="1" vertex="1">
                    <mxGeometry x="3410.3200000000006" y="2376.91" width="100" height="60" as="geometry"/>
                </mxCell>
                <mxCell id="418" style="edgeStyle=orthogonalEdgeStyle;rounded=1;orthogonalLoop=1;jettySize=auto;html=1;strokeWidth=2;endArrow=none;endFill=0;" parent="1" edge="1">
                    <mxGeometry relative="1" as="geometry">
                        <mxPoint x="4420.32" y="2431.91" as="targetPoint"/>
                        <mxPoint x="3540.3200000000006" y="2431.91" as="sourcePoint"/>
                    </mxGeometry>
                </mxCell>
                <mxCell id="419" value="L1" style="rounded=0;whiteSpace=wrap;html=1;strokeWidth=2;fillColor=#d5e8d4;strokeColor=#82b366;" parent="1" vertex="1">
                    <mxGeometry x="3620.0000000000005" y="2391.91" width="40" height="40" as="geometry"/>
                </mxCell>
                <mxCell id="420" value="" style="group" parent="1" vertex="1" connectable="0">
                    <mxGeometry x="3620.0000000000005" y="2206" width="20" height="20" as="geometry"/>
                </mxCell>
                <mxCell id="421" value="" style="ellipse;whiteSpace=wrap;html=1;aspect=fixed;strokeWidth=2;fillColor=#82B366;fontFamily=Times New Roman;fontSize=20;align=left;strokeColor=none;" parent="420" vertex="1">
                    <mxGeometry width="20" height="20" as="geometry"/>
                </mxCell>
                <mxCell id="422" value="" style="rounded=0;whiteSpace=wrap;html=1;strokeWidth=2;fontFamily=Times New Roman;fontSize=20;align=left;strokeColor=none;fillColor=#FFFFFF;" parent="420" vertex="1">
                    <mxGeometry x="4" y="7.5" width="12" height="5" as="geometry"/>
                </mxCell>
                <mxCell id="423" value="Submit C1" style="text;html=1;align=center;verticalAlign=middle;whiteSpace=wrap;rounded=0;" parent="1" vertex="1">
                    <mxGeometry x="3520.0000000000005" y="2186.62" width="60" height="30" as="geometry"/>
                </mxCell>
                <mxCell id="424" value="Submit L1" style="text;html=1;align=center;verticalAlign=middle;whiteSpace=wrap;rounded=0;" parent="1" vertex="1">
                    <mxGeometry x="3520.0000000000005" y="2356.29" width="60" height="30" as="geometry"/>
                </mxCell>
                <mxCell id="426" style="edgeStyle=orthogonalEdgeStyle;rounded=1;orthogonalLoop=1;jettySize=auto;html=1;strokeWidth=2;" parent="1" edge="1">
                    <mxGeometry relative="1" as="geometry">
                        <mxPoint x="3680.2500000000005" y="2131.62" as="targetPoint"/>
                        <mxPoint x="3680.0000000000005" y="2191.62" as="sourcePoint"/>
                    </mxGeometry>
                </mxCell>
                <mxCell id="427" value="Time bin start" style="text;html=1;align=center;verticalAlign=middle;whiteSpace=wrap;rounded=0;" parent="1" vertex="1">
                    <mxGeometry x="3620.0000000000005" y="2111.62" width="60" height="30" as="geometry"/>
                </mxCell>
                <mxCell id="428" value="" style="html=1;aspect=fixed;strokeColor=none;shadow=0;align=center;verticalAlign=top;shape=mxgraph.gcp2.check;fontFamily=Times New Roman;fontSize=20;fillColor=#6C8EBF;" parent="1" vertex="1">
                    <mxGeometry x="3922.5000000000005" y="2127.99" width="25" height="20" as="geometry"/>
                </mxCell>
                <mxCell id="429" style="edgeStyle=orthogonalEdgeStyle;rounded=1;orthogonalLoop=1;jettySize=auto;html=1;strokeWidth=2;" parent="1" edge="1">
                    <mxGeometry relative="1" as="geometry">
                        <mxPoint x="3929.9600000000005" y="2211.62" as="targetPoint"/>
                        <mxPoint x="3929.7100000000005" y="2271.62" as="sourcePoint"/>
                    </mxGeometry>
                </mxCell>
                <mxCell id="430" value="Resume C1" style="text;html=1;align=center;verticalAlign=middle;whiteSpace=wrap;rounded=0;" parent="1" vertex="1">
                    <mxGeometry x="3859.7100000000005" y="2191.62" width="70" height="30" as="geometry"/>
                </mxCell>
                <mxCell id="431" value="" style="html=1;aspect=fixed;strokeColor=none;shadow=0;align=center;verticalAlign=top;shape=mxgraph.gcp2.check;fontFamily=Times New Roman;fontSize=20;fillColor=#82B366;" parent="1" vertex="1">
                    <mxGeometry x="3966.6700000000005" y="2201.62" width="25" height="20" as="geometry"/>
                </mxCell>
                <mxCell id="432" style="edgeStyle=orthogonalEdgeStyle;rounded=1;orthogonalLoop=1;jettySize=auto;html=1;strokeWidth=2;" parent="1" edge="1">
                    <mxGeometry relative="1" as="geometry">
                        <mxPoint x="3745.3200000000006" y="2371.91" as="targetPoint"/>
                        <mxPoint x="3745.3200000000006" y="2431.91" as="sourcePoint"/>
                    </mxGeometry>
                </mxCell>
                <mxCell id="433" value="Submit L1" style="text;html=1;align=center;verticalAlign=middle;whiteSpace=wrap;rounded=0;" parent="1" vertex="1">
                    <mxGeometry x="3685.3200000000006" y="2356.91" width="60" height="30" as="geometry"/>
                </mxCell>
                <mxCell id="434" value="" style="html=1;aspect=fixed;strokeColor=none;shadow=0;align=center;verticalAlign=top;shape=mxgraph.gcp2.check;fontFamily=Times New Roman;fontSize=20;fillColor=#82B366;" parent="1" vertex="1">
                    <mxGeometry x="3654.1700000000005" y="2366.91" width="25" height="20" as="geometry"/>
                </mxCell>
                <mxCell id="435" value="S1" style="rounded=0;whiteSpace=wrap;html=1;strokeWidth=2;fillColor=#d5e8d4;strokeColor=#82b366;" parent="1" vertex="1">
                    <mxGeometry x="3580" y="1908.75" width="40" height="40" as="geometry"/>
                </mxCell>
                <mxCell id="436" style="edgeStyle=orthogonalEdgeStyle;rounded=1;orthogonalLoop=1;jettySize=auto;html=1;strokeWidth=2;" parent="1" edge="1">
                    <mxGeometry relative="1" as="geometry">
                        <mxPoint x="3580" y="1889.37" as="targetPoint"/>
                        <mxPoint x="3579.75" y="1949.37" as="sourcePoint"/>
                    </mxGeometry>
                </mxCell>
                <mxCell id="437" value="Network process" style="text;html=1;strokeColor=none;fillColor=none;align=left;verticalAlign=middle;whiteSpace=wrap;rounded=0;fontSize=20;fontColor=#000000;fontFamily=Helvetica;spacing=0;" parent="1" vertex="1">
                    <mxGeometry x="3410" y="1814.37" width="100" height="60" as="geometry"/>
                </mxCell>
                <mxCell id="438" value="DQC user process 1" style="text;html=1;strokeColor=none;fillColor=none;align=left;verticalAlign=middle;whiteSpace=wrap;rounded=0;fontSize=20;fontColor=#000000;fontFamily=Helvetica;spacing=0;" parent="1" vertex="1">
                    <mxGeometry x="3410" y="1894.37" width="100" height="60" as="geometry"/>
                </mxCell>
                <mxCell id="439" style="edgeStyle=orthogonalEdgeStyle;rounded=1;orthogonalLoop=1;jettySize=auto;html=1;strokeWidth=2;endArrow=none;endFill=0;" parent="1" edge="1">
                    <mxGeometry relative="1" as="geometry">
                        <mxPoint x="4420" y="1869" as="targetPoint"/>
                        <mxPoint x="3540" y="1869.37" as="sourcePoint"/>
                    </mxGeometry>
                </mxCell>
                <mxCell id="440" style="edgeStyle=orthogonalEdgeStyle;rounded=1;orthogonalLoop=1;jettySize=auto;html=1;strokeWidth=2;endArrow=none;endFill=0;" parent="1" edge="1">
                    <mxGeometry relative="1" as="geometry">
                        <mxPoint x="4420" y="1949" as="targetPoint"/>
                        <mxPoint x="3540" y="1949.37" as="sourcePoint"/>
                    </mxGeometry>
                </mxCell>
                <mxCell id="441" value="S1" style="rounded=0;whiteSpace=wrap;html=1;strokeWidth=2;fillColor=#d5e8d4;strokeColor=#82b366;" parent="1" vertex="1">
                    <mxGeometry x="3930.83" y="1909.0700000000002" width="40" height="40" as="geometry"/>
                </mxCell>
                <mxCell id="442" value="" style="shape=card;whiteSpace=wrap;html=1;size=100;rotation=-90;fillColor=#dae8fc;strokeColor=#6c8ebf;strokeWidth=2;" parent="1" vertex="1">
                    <mxGeometry x="3870" y="1814.06" width="40" height="70.63" as="geometry"/>
                </mxCell>
                <mxCell id="443" value="" style="shape=card;whiteSpace=wrap;html=1;size=100;rotation=90;fillColor=#dae8fc;strokeColor=#6c8ebf;strokeWidth=2;" parent="1" vertex="1">
                    <mxGeometry x="3744.38" y="1765" width="40" height="168.75" as="geometry"/>
                </mxCell>
                <mxCell id="444" value="..." style="text;html=1;align=center;verticalAlign=middle;whiteSpace=wrap;rounded=0;fontSize=28;" parent="1" vertex="1">
                    <mxGeometry x="3817.5" y="1824.37" width="60" height="30" as="geometry"/>
                </mxCell>
                <mxCell id="445" value="" style="group" parent="1" vertex="1" connectable="0">
                    <mxGeometry x="3620" y="1888.75" width="20" height="20" as="geometry"/>
                </mxCell>
                <mxCell id="446" value="" style="ellipse;whiteSpace=wrap;html=1;aspect=fixed;strokeWidth=2;fillColor=#82B366;fontFamily=Times New Roman;fontSize=20;align=left;strokeColor=none;" parent="445" vertex="1">
                    <mxGeometry width="20" height="20" as="geometry"/>
                </mxCell>
                <mxCell id="447" value="" style="rounded=0;whiteSpace=wrap;html=1;strokeWidth=2;fontFamily=Times New Roman;fontSize=20;align=left;strokeColor=none;fillColor=#FFFFFF;" parent="445" vertex="1">
                    <mxGeometry x="4" y="7.5" width="12" height="5" as="geometry"/>
                </mxCell>
                <mxCell id="448" value="Submit S1" style="text;html=1;align=center;verticalAlign=middle;whiteSpace=wrap;rounded=0;" parent="1" vertex="1">
                    <mxGeometry x="3520" y="1869.37" width="60" height="30" as="geometry"/>
                </mxCell>
                <mxCell id="449" style="edgeStyle=orthogonalEdgeStyle;rounded=1;orthogonalLoop=1;jettySize=auto;html=1;strokeWidth=2;" parent="1" edge="1">
                    <mxGeometry relative="1" as="geometry">
                        <mxPoint x="3680.25" y="1809.37" as="targetPoint"/>
                        <mxPoint x="3680" y="1869.37" as="sourcePoint"/>
                    </mxGeometry>
                </mxCell>
                <mxCell id="450" value="Time bin start" style="text;html=1;align=center;verticalAlign=middle;whiteSpace=wrap;rounded=0;" parent="1" vertex="1">
                    <mxGeometry x="3620" y="1794.37" width="60" height="30" as="geometry"/>
                </mxCell>
                <mxCell id="451" value="" style="html=1;aspect=fixed;strokeColor=none;shadow=0;align=center;verticalAlign=top;shape=mxgraph.gcp2.check;fontFamily=Times New Roman;fontSize=20;fillColor=#6C8EBF;" parent="1" vertex="1">
                    <mxGeometry x="3925.32" y="1804.37" width="25" height="20" as="geometry"/>
                </mxCell>
                <mxCell id="452" style="edgeStyle=orthogonalEdgeStyle;rounded=1;orthogonalLoop=1;jettySize=auto;html=1;strokeWidth=2;" parent="1" edge="1">
                    <mxGeometry relative="1" as="geometry">
                        <mxPoint x="3930.57" y="1889.0700000000002" as="targetPoint"/>
                        <mxPoint x="3930.32" y="1949.0700000000002" as="sourcePoint"/>
                    </mxGeometry>
                </mxCell>
                <mxCell id="453" value="Resume S1" style="text;html=1;align=center;verticalAlign=middle;whiteSpace=wrap;rounded=0;" parent="1" vertex="1">
                    <mxGeometry x="3860.8300000000004" y="1874.37" width="70" height="30" as="geometry"/>
                </mxCell>
                <mxCell id="454" value="" style="html=1;aspect=fixed;strokeColor=none;shadow=0;align=center;verticalAlign=top;shape=mxgraph.gcp2.check;fontFamily=Times New Roman;fontSize=20;fillColor=#82B366;" parent="1" vertex="1">
                    <mxGeometry x="3966.67" y="1884.37" width="25" height="20" as="geometry"/>
                </mxCell>
                <mxCell id="455" value="Submit S2" style="text;html=1;align=center;verticalAlign=middle;whiteSpace=wrap;rounded=0;" parent="1" vertex="1">
                    <mxGeometry x="4025.32" y="1869.37" width="60" height="30" as="geometry"/>
                </mxCell>
                <mxCell id="456" value="S2" style="rounded=0;whiteSpace=wrap;html=1;strokeWidth=2;fillColor=#d5e8d4;strokeColor=#82b366;" parent="1" vertex="1">
                    <mxGeometry x="4030.03" y="1909.0700000000002" width="40" height="40" as="geometry"/>
                </mxCell>
                <mxCell id="457" style="edgeStyle=orthogonalEdgeStyle;rounded=1;orthogonalLoop=1;jettySize=auto;html=1;strokeWidth=2;" parent="1" edge="1">
                    <mxGeometry relative="1" as="geometry">
                        <mxPoint x="4030.03" y="1890.3200000000002" as="targetPoint"/>
                        <mxPoint x="4029.78" y="1950.3200000000002" as="sourcePoint"/>
                    </mxGeometry>
                </mxCell>
                <mxCell id="458" style="edgeStyle=orthogonalEdgeStyle;rounded=1;orthogonalLoop=1;jettySize=auto;html=1;strokeWidth=2;" parent="1" edge="1">
                    <mxGeometry relative="1" as="geometry">
                        <mxPoint x="4214.58" y="1888.75" as="targetPoint"/>
                        <mxPoint x="4214.33" y="1948.75" as="sourcePoint"/>
                    </mxGeometry>
                </mxCell>
                <mxCell id="459" value="Submit S1" style="text;html=1;align=center;verticalAlign=middle;whiteSpace=wrap;rounded=0;" parent="1" vertex="1">
                    <mxGeometry x="4201.83" y="1869.0499999999997" width="60" height="30" as="geometry"/>
                </mxCell>
                <mxCell id="460" value="Time bin N+2" style="rounded=0;whiteSpace=wrap;html=1;strokeWidth=2;fillColor=#f5f5f5;strokeColor=#666666;fontFamily=Helvetica;fontSize=19;" parent="1" vertex="1">
                    <mxGeometry x="4159.17" y="2066.62" width="120" height="40" as="geometry"/>
                </mxCell>
                <mxCell id="462" style="edgeStyle=orthogonalEdgeStyle;rounded=1;orthogonalLoop=1;jettySize=auto;html=1;strokeWidth=2;" parent="1" edge="1">
                    <mxGeometry relative="1" as="geometry">
                        <mxPoint x="4134.850000000001" y="2211.62" as="targetPoint"/>
                        <mxPoint x="4134.600000000001" y="2271.62" as="sourcePoint"/>
                    </mxGeometry>
                </mxCell>
                <mxCell id="466" value="Submit C1" style="text;html=1;align=center;verticalAlign=middle;whiteSpace=wrap;rounded=0;" parent="1" vertex="1">
                    <mxGeometry x="4075.0000000000005" y="2191.62" width="60" height="30" as="geometry"/>
                </mxCell>
                <mxCell id="471" value="" style="shape=card;whiteSpace=wrap;html=1;size=100;rotation=90;fillColor=#dae8fc;strokeColor=#6c8ebf;strokeWidth=2;" parent="1" vertex="1">
                    <mxGeometry x="4120.8" y="2091.8" width="40" height="158.38" as="geometry"/>
                </mxCell>
                <mxCell id="472" style="edgeStyle=orthogonalEdgeStyle;rounded=1;orthogonalLoop=1;jettySize=auto;html=1;strokeWidth=2;" parent="1" edge="1">
                    <mxGeometry relative="1" as="geometry">
                        <mxPoint x="4040.57" y="2131.62" as="targetPoint"/>
                        <mxPoint x="4040.32" y="2191.62" as="sourcePoint"/>
                    </mxGeometry>
                </mxCell>
                <mxCell id="473" value="Time bin start" style="text;html=1;align=center;verticalAlign=middle;whiteSpace=wrap;rounded=0;" parent="1" vertex="1">
                    <mxGeometry x="3991.67" y="2111.62" width="60" height="30" as="geometry"/>
                </mxCell>
                <mxCell id="474" style="edgeStyle=orthogonalEdgeStyle;rounded=1;orthogonalLoop=1;jettySize=auto;html=1;strokeWidth=2;" parent="1" edge="1">
                    <mxGeometry relative="1" as="geometry">
                        <mxPoint x="4159.42" y="1809.37" as="targetPoint"/>
                        <mxPoint x="4159.17" y="1869.37" as="sourcePoint"/>
                    </mxGeometry>
                </mxCell>
                <mxCell id="475" value="Time bin start" style="text;html=1;align=center;verticalAlign=middle;whiteSpace=wrap;rounded=0;" parent="1" vertex="1">
                    <mxGeometry x="4099.17" y="1794.37" width="60" height="30" as="geometry"/>
                </mxCell>
                <mxCell id="476" value="" style="shape=card;whiteSpace=wrap;html=1;size=100;rotation=90;fillColor=#dae8fc;strokeColor=#6c8ebf;strokeWidth=2;" parent="1" vertex="1">
                    <mxGeometry x="4230" y="1760" width="40" height="178.75" as="geometry"/>
                </mxCell>
                <mxCell id="477" value="..." style="text;html=1;align=center;verticalAlign=middle;whiteSpace=wrap;rounded=0;fontSize=28;" parent="1" vertex="1">
                    <mxGeometry x="4310" y="1824.37" width="60" height="30" as="geometry"/>
                </mxCell>
                <mxCell id="478" value="..." style="text;html=1;align=center;verticalAlign=middle;whiteSpace=wrap;rounded=0;fontSize=28;" parent="1" vertex="1">
                    <mxGeometry x="4310" y="2141.62" width="60" height="30" as="geometry"/>
                </mxCell>
                <mxCell id="481" value="" style="rounded=0;whiteSpace=wrap;html=1;strokeWidth=2;fillColor=#f5f5f5;strokeColor=#666666;fontFamily=Helvetica;fontSize=19;dashed=1;" parent="1" vertex="1">
                    <mxGeometry x="4279.17" y="2066.62" width="120" height="40" as="geometry"/>
                </mxCell>
                <mxCell id="482" value="..." style="text;html=1;align=center;verticalAlign=middle;whiteSpace=wrap;rounded=0;fontSize=19;fontFamily=Helvetica;" parent="1" vertex="1">
                    <mxGeometry x="3829.1700000000005" y="2066.62" width="60" height="30" as="geometry"/>
                </mxCell>
                <mxCell id="483" value="..." style="text;html=1;align=center;verticalAlign=middle;whiteSpace=wrap;rounded=0;fontSize=19;fontFamily=Helvetica;" parent="1" vertex="1">
                    <mxGeometry x="4309.17" y="2066.62" width="60" height="30" as="geometry"/>
                </mxCell>
                <mxCell id="484" value="Server QNPU" style="shape=curlyBracket;whiteSpace=wrap;html=1;rounded=1;labelPosition=left;verticalLabelPosition=middle;align=center;verticalAlign=middle;horizontal=0;fontSize=18;" parent="1" vertex="1">
                    <mxGeometry x="3370" y="1814.37" width="20" height="205.63" as="geometry"/>
                </mxCell>
                <mxCell id="485" value="Client QNPU" style="shape=curlyBracket;whiteSpace=wrap;html=1;rounded=1;labelPosition=left;verticalLabelPosition=middle;align=center;verticalAlign=middle;horizontal=0;fontSize=18;" parent="1" vertex="1">
                    <mxGeometry x="3370" y="2133.81" width="20" height="386.19" as="geometry"/>
                </mxCell>
                <mxCell id="531" style="edgeStyle=orthogonalEdgeStyle;rounded=1;orthogonalLoop=1;jettySize=auto;html=1;strokeWidth=2;" parent="1" edge="1">
                    <mxGeometry relative="1" as="geometry">
                        <mxPoint x="3580" y="1968.7499999999995" as="targetPoint"/>
                        <mxPoint x="3579.75" y="2028.7499999999995" as="sourcePoint"/>
                    </mxGeometry>
                </mxCell>
                <mxCell id="532" style="edgeStyle=orthogonalEdgeStyle;rounded=1;orthogonalLoop=1;jettySize=auto;html=1;strokeWidth=2;endArrow=none;endFill=0;" parent="1" edge="1">
                    <mxGeometry relative="1" as="geometry">
                        <mxPoint x="4420" y="2029.9999999999995" as="targetPoint"/>
                        <mxPoint x="3540.0000000000005" y="2030.3699999999994" as="sourcePoint"/>
                    </mxGeometry>
                </mxCell>
                <mxCell id="537" value="Submit S1" style="text;html=1;align=center;verticalAlign=middle;whiteSpace=wrap;rounded=0;" parent="1" vertex="1">
                    <mxGeometry x="3520" y="1948.7499999999995" width="60" height="30" as="geometry"/>
                </mxCell>
                <mxCell id="546" value="S1" style="rounded=0;whiteSpace=wrap;html=1;strokeWidth=2;fillColor=#d5e8d4;strokeColor=#82b366;" parent="1" vertex="1">
                    <mxGeometry x="4105" y="1988.1299999999997" width="40" height="40" as="geometry"/>
                </mxCell>
                <mxCell id="547" value="" style="group" parent="1" vertex="1" connectable="0">
                    <mxGeometry x="4143" y="1963.9999999999995" width="20" height="20" as="geometry"/>
                </mxCell>
                <mxCell id="548" value="" style="ellipse;whiteSpace=wrap;html=1;aspect=fixed;strokeWidth=2;fillColor=#82B366;fontFamily=Times New Roman;fontSize=20;align=left;strokeColor=none;" parent="547" vertex="1">
                    <mxGeometry width="20" height="20" as="geometry"/>
                </mxCell>
                <mxCell id="549" value="" style="rounded=0;whiteSpace=wrap;html=1;strokeWidth=2;fontFamily=Times New Roman;fontSize=20;align=left;strokeColor=none;fillColor=#FFFFFF;" parent="547" vertex="1">
                    <mxGeometry x="4" y="7.5" width="12" height="5" as="geometry"/>
                </mxCell>
                <mxCell id="550" value="DQC user process 2" style="text;html=1;strokeColor=none;fillColor=none;align=left;verticalAlign=middle;whiteSpace=wrap;rounded=0;fontSize=20;fontColor=#000000;fontFamily=Helvetica;spacing=0;" parent="1" vertex="1">
                    <mxGeometry x="3409.17" y="1970" width="100" height="60" as="geometry"/>
                </mxCell>
                <mxCell id="572" style="edgeStyle=orthogonalEdgeStyle;rounded=1;orthogonalLoop=1;jettySize=auto;html=1;strokeWidth=2;" parent="1" edge="1">
                    <mxGeometry relative="1" as="geometry">
                        <mxPoint x="3580.2500000000005" y="2290.67" as="targetPoint"/>
                        <mxPoint x="3580.0000000000005" y="2350.67" as="sourcePoint"/>
                    </mxGeometry>
                </mxCell>
                <mxCell id="573" value="DQC user process 2" style="text;html=1;strokeColor=none;fillColor=none;align=left;verticalAlign=middle;whiteSpace=wrap;rounded=0;fontSize=20;fontColor=#000000;fontFamily=Helvetica;spacing=0;" parent="1" vertex="1">
                    <mxGeometry x="3409.1700000000005" y="2296.29" width="100" height="60" as="geometry"/>
                </mxCell>
                <mxCell id="574" style="edgeStyle=orthogonalEdgeStyle;rounded=1;orthogonalLoop=1;jettySize=auto;html=1;strokeWidth=2;endArrow=none;endFill=0;" parent="1" edge="1">
                    <mxGeometry relative="1" as="geometry">
                        <mxPoint x="4420" y="2350" as="targetPoint"/>
                        <mxPoint x="3540.0000000000005" y="2350" as="sourcePoint"/>
                    </mxGeometry>
                </mxCell>
                <mxCell id="579" value="Submit C1" style="text;html=1;align=center;verticalAlign=middle;whiteSpace=wrap;rounded=0;" parent="1" vertex="1">
                    <mxGeometry x="3520.0000000000005" y="2276.29" width="60" height="30" as="geometry"/>
                </mxCell>
                <mxCell id="583" value="C1" style="rounded=0;whiteSpace=wrap;html=1;strokeWidth=2;fillColor=#d5e8d4;strokeColor=#82b366;" parent="1" vertex="1">
                    <mxGeometry x="3980.0000000000005" y="2310.67" width="40" height="40" as="geometry"/>
                </mxCell>
                <mxCell id="585" value="" style="group" parent="1" vertex="1" connectable="0">
                    <mxGeometry x="4019.71" y="2290.67" width="20" height="20" as="geometry"/>
                </mxCell>
                <mxCell id="586" value="" style="ellipse;whiteSpace=wrap;html=1;aspect=fixed;strokeWidth=2;fillColor=#82B366;fontFamily=Times New Roman;fontSize=20;align=left;strokeColor=none;" parent="585" vertex="1">
                    <mxGeometry width="20" height="20" as="geometry"/>
                </mxCell>
                <mxCell id="587" value="" style="rounded=0;whiteSpace=wrap;html=1;strokeWidth=2;fontFamily=Times New Roman;fontSize=20;align=left;strokeColor=none;fillColor=#FFFFFF;" parent="585" vertex="1">
                    <mxGeometry x="4" y="7.5" width="12" height="5" as="geometry"/>
                </mxCell>
                <mxCell id="591" value="LGT user process 2" style="text;html=1;strokeColor=none;fillColor=none;align=left;verticalAlign=middle;whiteSpace=wrap;rounded=0;fontSize=20;fontColor=#000000;fontFamily=Helvetica;spacing=0;" parent="1" vertex="1">
                    <mxGeometry x="3410.3200000000006" y="2456.24" width="100" height="60" as="geometry"/>
                </mxCell>
                <mxCell id="592" style="edgeStyle=orthogonalEdgeStyle;rounded=1;orthogonalLoop=1;jettySize=auto;html=1;strokeWidth=2;endArrow=none;endFill=0;" parent="1" edge="1">
                    <mxGeometry relative="1" as="geometry">
                        <mxPoint x="4420.32" y="2511.24" as="targetPoint"/>
                        <mxPoint x="3540.3200000000006" y="2511.24" as="sourcePoint"/>
                    </mxGeometry>
                </mxCell>
                <mxCell id="593" value="L1" style="rounded=0;whiteSpace=wrap;html=1;strokeWidth=2;fillColor=#d5e8d4;strokeColor=#82b366;" parent="1" vertex="1">
                    <mxGeometry x="4030.0300000000007" y="2471.24" width="40" height="40" as="geometry"/>
                </mxCell>
                <mxCell id="594" value="Submit L1" style="text;html=1;align=center;verticalAlign=middle;whiteSpace=wrap;rounded=0;" parent="1" vertex="1">
                    <mxGeometry x="3520.0000000000005" y="2431.91" width="60" height="30" as="geometry"/>
                </mxCell>
                <mxCell id="598" value="" style="html=1;aspect=fixed;strokeColor=none;shadow=0;align=center;verticalAlign=top;shape=mxgraph.gcp2.check;fontFamily=Times New Roman;fontSize=20;fillColor=#82B366;" parent="1" vertex="1">
                    <mxGeometry x="4065.0300000000007" y="2446.24" width="25" height="20" as="geometry"/>
                </mxCell>
                <mxCell id="603" style="edgeStyle=orthogonalEdgeStyle;rounded=1;orthogonalLoop=1;jettySize=auto;html=1;strokeWidth=2;" parent="1" edge="1">
                    <mxGeometry relative="1" as="geometry">
                        <mxPoint x="4279.49" y="2451.24" as="targetPoint"/>
                        <mxPoint x="4279.49" y="2511.24" as="sourcePoint"/>
                    </mxGeometry>
                </mxCell>
                <mxCell id="604" value="Submit L1" style="text;html=1;align=center;verticalAlign=middle;whiteSpace=wrap;rounded=0;" parent="1" vertex="1">
                    <mxGeometry x="4219.49" y="2436.24" width="60" height="30" as="geometry"/>
                </mxCell>
                <mxCell id="605" style="edgeStyle=orthogonalEdgeStyle;rounded=1;orthogonalLoop=1;jettySize=auto;html=1;strokeWidth=2;" parent="1" edge="1">
                    <mxGeometry relative="1" as="geometry">
                        <mxPoint x="3580.0000000000005" y="2451.24" as="targetPoint"/>
                        <mxPoint x="3580.0000000000005" y="2511.24" as="sourcePoint"/>
                    </mxGeometry>
                </mxCell>
                <mxCell id="609" value="" style="html=1;aspect=fixed;strokeColor=none;shadow=0;align=center;verticalAlign=top;shape=mxgraph.gcp2.check;fontFamily=Times New Roman;fontSize=20;fillColor=#82B366;" parent="1" vertex="1">
                    <mxGeometry x="4072.5" y="1889.0699999999997" width="25" height="20" as="geometry"/>
                </mxCell>
                <mxCell id="613" value="" style="endArrow=none;html=1;fillColor=#f8cecc;strokeColor=#b85450;strokeWidth=2;dashed=1;exitX=1.021;exitY=0.382;exitDx=0;exitDy=0;exitPerimeter=0;" parent="1" source="471" edge="1">
                    <mxGeometry width="50" height="50" relative="1" as="geometry">
                        <mxPoint x="4157.2" y="2191.62" as="sourcePoint"/>
                        <mxPoint x="4160" y="1830" as="targetPoint"/>
                    </mxGeometry>
                </mxCell>
                <mxCell id="614" value="" style="rounded=0;whiteSpace=wrap;html=1;strokeWidth=0;fillColor=#f8cecc;strokeColor=#b85450;opacity=70;" parent="1" vertex="1">
                    <mxGeometry x="4060" y="2152.24" width="100" height="40" as="geometry"/>
                </mxCell>
                <mxCell id="615" value="" style="endArrow=none;html=1;fillColor=#f8cecc;strokeColor=#b85450;strokeWidth=2;dashed=1;exitX=1.021;exitY=0.382;exitDx=0;exitDy=0;exitPerimeter=0;" parent="1" edge="1">
                    <mxGeometry width="50" height="50" relative="1" as="geometry">
                        <mxPoint x="4060" y="2192.24" as="sourcePoint"/>
                        <mxPoint x="4061" y="1830" as="targetPoint"/>
                    </mxGeometry>
                </mxCell>
            </root>
        </mxGraphModel>
    </diagram>
</mxfile>